<?xml version="1.0" encoding="UTF-8" standalone="no"?>
<!DOCTYPE svg PUBLIC "-//W3C//DTD SVG 1.1//EN" "http://www.w3.org/Graphics/SVG/1.1/DTD/svg11.dtd">
<svg width="100%" height="100%" viewBox="0 0 491 412" version="1.1" xmlns="http://www.w3.org/2000/svg" xmlns:xlink="http://www.w3.org/1999/xlink" xml:space="preserve" xmlns:serif="http://www.serif.com/" style="fill-rule:evenodd;clip-rule:evenodd;stroke-linejoin:round;stroke-miterlimit:2;">
    <g transform="matrix(1,0,0,1,-394.569,-536.68)">
        <g id="Regular-S" transform="matrix(5.22438,0,0,5.22438,398.073,926.722)">
            <path d="M90.186,-42.627L72.363,-42.627C69.336,-42.627 68.604,-40.527 70.215,-38.232L78.906,-25.83C80.225,-23.926 82.275,-23.877 83.643,-25.83L92.334,-38.184C93.994,-40.527 93.213,-42.627 90.186,-42.627ZM46.24,-67.236C63.916,-67.236 78.223,-52.93 78.223,-35.254C78.223,-33.252 79.932,-31.543 81.982,-31.543C83.984,-31.543 85.644,-33.203 85.693,-35.205C85.644,-57.08 68.018,-74.658 46.24,-74.658C34.668,-74.658 24.219,-69.678 17.041,-61.719C15.185,-59.668 15.869,-57.129 17.481,-55.908C18.897,-54.932 20.801,-54.785 22.607,-56.787C28.467,-63.184 36.865,-67.236 46.24,-67.236ZM2.344,-27.881L20.117,-27.881C23.145,-27.881 23.926,-29.981 22.315,-32.275L13.623,-44.678C12.305,-46.582 10.254,-46.631 8.887,-44.678L0.195,-32.324C-1.465,-29.981 -0.732,-27.881 2.344,-27.881ZM46.24,-3.271C28.565,-3.271 14.307,-17.578 14.307,-35.254C14.307,-37.256 12.598,-38.965 10.547,-38.965C8.545,-38.965 6.885,-37.305 6.836,-35.303C6.885,-13.428 24.512,4.15 46.24,4.15C57.861,4.15 68.262,-0.83 75.488,-8.789C77.295,-10.84 76.66,-13.379 75,-14.6C73.633,-15.576 71.729,-15.723 69.922,-13.721C64.063,-7.324 55.615,-3.271 46.24,-3.271Z" style="fill:rgb(189,66,66);fill-rule:nonzero;"/>
        </g>
    </g>
</svg>
