<?xml version="1.0" encoding="UTF-8" standalone="no"?>
<!DOCTYPE svg PUBLIC "-//W3C//DTD SVG 1.1//EN" "http://www.w3.org/Graphics/SVG/1.1/DTD/svg11.dtd">
<svg width="100%" height="100%" viewBox="0 0 499 632" version="1.1" xmlns="http://www.w3.org/2000/svg" xmlns:xlink="http://www.w3.org/1999/xlink" xml:space="preserve" xmlns:serif="http://www.serif.com/" style="fill-rule:evenodd;clip-rule:evenodd;stroke-linejoin:round;stroke-miterlimit:2;">
    <g transform="matrix(1,0,0,1,-173.142,-133.253)">
        <g id="Regular-S" transform="matrix(7.66486,0,0,7.66486,98.2902,718.97)">
            <path d="M9.766,-6.543C9.766,1.807 13.818,5.908 22.022,5.908L62.5,5.908C70.703,5.908 74.805,1.807 74.805,-6.543L74.805,-63.965C74.805,-72.266 70.703,-76.416 62.5,-76.416L22.022,-76.416C13.818,-76.416 9.766,-72.266 9.766,-63.965L9.766,-6.543ZM16.797,-6.641L16.797,-63.867C16.797,-67.383 18.701,-69.385 22.412,-69.385L62.158,-69.385C65.82,-69.385 67.725,-67.383 67.725,-63.867L67.725,-6.641C67.725,-3.125 65.82,-1.123 62.158,-1.123L22.412,-1.123C18.701,-1.123 16.797,-3.125 16.797,-6.641Z" style="fill:rgb(159,159,159);fill-rule:nonzero;"/>
            <path d="M28.125,-53.223L56.494,-53.223C58.008,-53.223 59.131,-54.395 59.131,-55.908C59.131,-57.373 58.008,-58.496 56.494,-58.496L28.125,-58.496C26.563,-58.496 25.44,-57.373 25.44,-55.908C25.44,-54.395 26.563,-53.223 28.125,-53.223Z" style="fill:rgb(159,159,159);fill-rule:nonzero;"/>
            <path d="M28.125,-39.893L56.494,-39.893C58.008,-39.893 59.131,-41.113 59.131,-42.627C59.131,-44.043 58.008,-45.215 56.494,-45.215L28.125,-45.215C26.563,-45.215 25.44,-44.043 25.44,-42.627C25.44,-41.113 26.563,-39.893 28.125,-39.893Z" style="fill:rgb(159,159,159);fill-rule:nonzero;"/>
            <path d="M28.125,-26.611L41.406,-26.611C42.92,-26.611 44.043,-27.734 44.043,-29.199C44.043,-30.713 42.92,-31.885 41.406,-31.885L28.125,-31.885C26.563,-31.885 25.44,-30.713 25.44,-29.199C25.44,-27.734 26.563,-26.611 28.125,-26.611Z" style="fill:rgb(159,159,159);fill-rule:nonzero;"/>
        </g>
    </g>
</svg>
